<?xml version="1.0" standalone="no"?>
<!DOCTYPE svg PUBLIC "-//W3C//DTD SVG 20010904//EN"
 "http://www.w3.org/TR/2001/REC-SVG-20010904/DTD/svg10.dtd">
<svg version="1.0" xmlns="http://www.w3.org/2000/svg"
 width="333.000000pt" height="333.000000pt" viewBox="0 0 333.000000 333.000000"
 preserveAspectRatio="xMidYMid meet">
<metadata>
Created by potrace 1.14, written by Peter Selinger 2001-2017
</metadata>
<g transform="translate(0.000000,333.000000) scale(0.100000,-0.100000)"
fill="#000000" stroke="none">
<path d="M595 3295 c-114 -52 -179 -162 -177 -299 3 -182 135 -308 324 -307
141 0 262 110 296 266 20 95 -9 195 -77 262 -92 92 -258 127 -366 78z"/>
<path d="M421 2339 c-7 -277 -6 -960 1 -1039 32 -332 114 -592 251 -795 87
-129 261 -277 422 -358 80 -40 222 -87 337 -111 91 -19 132 -22 265 -20 87 2
167 5 178 7 136 25 269 69 375 122 290 146 518 412 608 710 45 149 56 230 57
395 0 167 -19 279 -72 430 -62 177 -158 333 -283 459 -117 119 -194 174 -330
238 -118 56 -191 78 -360 109 -66 12 -282 11 -379 -2 -119 -17 -281 -53 -281
-64 0 -9 154 -431 170 -465 5 -11 14 -37 21 -57 13 -38 13 -38 58 -32 88 10
255 12 325 2 214 -28 379 -136 459 -300 56 -115 70 -184 71 -333 0 -146 -16
-211 -79 -315 -243 -400 -930 -392 -1137 14 -57 112 -66 186 -66 556 0 345 -4
432 -28 547 -58 287 -225 443 -494 460 l-85 6 -4 -164z"/>
</g>
</svg>
